<svg width="360" height="360" viewBox="0 0 360 360" fill="none" xmlns="http://www.w3.org/2000/svg">
<path d="M335.425 216.613C344.127 180.423 340.012 142.335 323.78 108.839C307.548 75.3439 280.204 48.5127 246.407 32.9177C212.61 17.3227 174.451 13.9288 138.432 23.3143C102.414 32.6997 70.7634 54.2838 48.8746 84.3889C26.9859 114.494 16.2128 151.257 18.391 188.415C20.5691 225.573 35.5639 260.826 60.8202 288.167C86.0765 315.508 120.032 333.247 156.9 338.359C193.769 343.472 231.27 335.643 263.013 316.206L233.608 268.184C212.975 280.818 188.6 285.907 164.635 282.584C140.671 279.26 118.6 267.73 102.183 249.959C85.7664 232.187 76.0198 209.272 74.604 185.12C73.1881 160.967 80.1907 137.071 94.4184 117.503C108.646 97.9345 129.219 83.9048 152.631 77.8043C176.043 71.7038 200.846 73.9098 222.814 84.0465C244.782 94.1833 262.556 111.624 273.107 133.396C283.657 155.168 286.333 179.925 280.676 203.448L335.425 216.613Z" fill="#008585"/>
</svg>
